<svg width="443" height="926" viewBox="0 0 443 926" fill="none" xmlns="http://www.w3.org/2000/svg">
<g clip-path="url(#clip0_313_2)">
<rect width="428" height="926" fill="#1C1D78" fill-opacity="0.97"/>
<path d="M196.333 443H206.757L203.723 439.862C202.918 439.03 201.826 438.562 200.688 438.562H196.333C179.742 438.562 166.292 424.655 166.292 407.5C166.292 390.345 179.742 376.438 196.333 376.437H230.667C247.258 376.437 260.708 390.345 260.708 407.5C260.708 424.655 247.258 438.562 230.667 438.562H217.823C216.116 438.562 214.478 437.861 213.271 436.613L209.716 432.937C207.704 430.856 204.975 429.687 202.129 429.687H196.333C184.482 429.687 174.875 419.754 174.875 407.5C174.875 395.246 184.482 385.312 196.333 385.312H230.667C242.518 385.312 252.125 395.246 252.125 407.5C252.125 419.754 242.518 429.687 230.667 429.687H222.42C220.713 429.687 219.075 428.986 217.868 427.738L214.313 424.062C212.3 421.981 209.571 420.812 206.726 420.812H196.333C189.223 420.812 183.458 414.852 183.458 407.5C183.458 400.148 189.223 394.187 196.333 394.187H230.667C237.777 394.187 243.542 400.148 243.542 407.5C243.542 414.763 237.917 420.667 230.926 420.81L230.925 420.812H227.785C226.077 420.812 224.44 420.111 223.232 418.863L219.677 415.187C218.026 413.48 215.893 412.386 213.608 412.049L213.5 411.937H196.333C193.963 411.937 192.042 409.951 192.042 407.5C192.042 405.049 193.963 403.062 196.333 403.062H230.667C233.037 403.062 234.958 405.049 234.958 407.5C234.958 409.951 233.037 411.937 230.667 411.937H222.083L225.118 415.075C225.923 415.907 227.014 416.375 228.153 416.375H230.667C235.407 416.375 239.25 412.401 239.25 407.5C239.25 402.599 235.407 398.625 230.667 398.625H196.333C191.593 398.625 187.75 402.599 187.75 407.5C187.75 412.401 191.593 416.375 196.333 416.375H212.09C213.798 416.375 215.435 417.076 216.643 418.324L220.198 422.001C222.21 424.081 224.939 425.25 227.785 425.25H231.74V425.216C240.721 424.643 247.833 416.93 247.833 407.5C247.833 397.697 240.147 389.75 230.667 389.75H196.333C186.853 389.75 179.167 397.697 179.167 407.5C179.167 417.303 186.853 425.25 196.333 425.25H206.726C208.433 425.25 210.071 425.951 211.278 427.199L214.833 430.876C216.845 432.956 219.574 434.125 222.42 434.125H230.667C244.888 434.125 256.417 422.205 256.417 407.5C256.417 392.795 244.888 380.875 230.667 380.875H196.333C182.112 380.875 170.583 392.795 170.583 407.5C170.583 422.205 182.112 434.125 196.333 434.125H202.129C203.837 434.125 205.474 434.826 206.681 436.074L210.237 439.751C212.249 441.831 214.978 443 217.823 443H230.667C249.628 443 265 427.106 265 407.5C265 387.894 249.628 372 230.667 372L196.333 372C177.372 372 162 387.894 162 407.5C162 427.106 177.372 443 196.333 443Z" fill="#030455"/>
<ellipse cx="162" cy="71" rx="269" ry="260" fill="#023E8A"/>
<ellipse cx="172" cy="80" rx="194" ry="175" fill="#0077B6"/>
<ellipse cx="269" cy="904" rx="269" ry="260" fill="#023E8A"/>
<ellipse cx="269" cy="894" rx="194" ry="175" fill="#0077B6"/>
</g>
<path d="M148.72 508.16L149.68 513.66L152.82 502.4H154.44L157.58 513.6L158.58 508.16L159.76 502.4H161.48L158.48 516H156.72L153.6 504.88L150.48 516H148.7L145.72 502.4H147.54L148.72 508.16ZM171.927 514.38V516H164.327V502.4H171.727V504.04H166.067V508.3H171.127V509.94H166.067V514.38H171.927ZM186.508 516L185.488 512.84H180.328L179.308 516H177.608L182.128 502.4H183.768L188.308 516H186.508ZM181.588 508.92L180.828 511.26H184.968L184.208 508.92L182.908 504.72L181.588 508.92ZM192.59 510.68V516H190.85V502.4H195.11C196.39 502.4 197.377 502.74 198.07 503.42C198.777 504.087 199.13 504.98 199.13 506.1V506.96C199.13 507.76 198.944 508.453 198.57 509.04C198.21 509.627 197.69 510.06 197.01 510.34C197.584 511.26 198.117 512.193 198.61 513.14C199.104 514.087 199.557 515.04 199.97 516H197.97C197.21 514.187 196.324 512.413 195.31 510.68H192.59ZM195.11 504H192.59V509.08H195.11C195.79 509.08 196.33 508.893 196.73 508.52C197.13 508.133 197.33 507.613 197.33 506.96V506.1C197.33 505.433 197.13 504.92 196.73 504.56C196.33 504.187 195.79 504 195.11 504ZM210.462 514.38V516H202.862V502.4H210.262V504.04H204.602V508.3H209.662V509.94H204.602V514.38H210.462ZM224.523 510.28H219.583V516H217.843V502.4H225.123V504.04H219.583V508.64H224.523V510.28ZM237.103 507.7V510.68C237.103 512.373 236.676 513.72 235.823 514.72C234.983 515.707 233.769 516.2 232.183 516.2C230.596 516.2 229.376 515.707 228.523 514.72C227.683 513.72 227.263 512.373 227.263 510.68V507.7C227.263 506.02 227.683 504.687 228.523 503.7C229.376 502.7 230.596 502.2 232.183 502.2C233.769 502.2 234.983 502.7 235.823 503.7C236.676 504.687 237.103 506.02 237.103 507.7ZM235.303 507.7C235.303 506.46 235.036 505.507 234.503 504.84C233.983 504.16 233.209 503.82 232.183 503.82C231.169 503.82 230.396 504.16 229.863 504.84C229.329 505.507 229.063 506.46 229.063 507.7V510.68C229.063 511.933 229.329 512.9 229.863 513.58C230.396 514.26 231.169 514.6 232.183 514.6C233.209 514.6 233.983 514.26 234.503 513.58C235.036 512.9 235.303 511.933 235.303 510.68V507.7ZM242.532 510.68V516H240.792V502.4H245.052C246.332 502.4 247.319 502.74 248.012 503.42C248.719 504.087 249.072 504.98 249.072 506.1V506.96C249.072 507.76 248.885 508.453 248.512 509.04C248.152 509.627 247.632 510.06 246.952 510.34C247.525 511.26 248.059 512.193 248.552 513.14C249.045 514.087 249.499 515.04 249.912 516H247.912C247.152 514.187 246.265 512.413 245.252 510.68H242.532ZM245.052 504H242.532V509.08H245.052C245.732 509.08 246.272 508.893 246.672 508.52C247.072 508.133 247.272 507.613 247.272 506.96V506.1C247.272 505.433 247.072 504.92 246.672 504.56C246.272 504.187 245.732 504 245.052 504ZM265.319 502.4L261.159 510.56V516H259.419V510.56L255.239 502.4H257.119L260.379 508.84L263.519 502.4H265.319ZM276.204 507.7V510.68C276.204 512.373 275.778 513.72 274.924 514.72C274.084 515.707 272.871 516.2 271.284 516.2C269.698 516.2 268.478 515.707 267.624 514.72C266.784 513.72 266.364 512.373 266.364 510.68V507.7C266.364 506.02 266.784 504.687 267.624 503.7C268.478 502.7 269.698 502.2 271.284 502.2C272.871 502.2 274.084 502.7 274.924 503.7C275.778 504.687 276.204 506.02 276.204 507.7ZM274.404 507.7C274.404 506.46 274.138 505.507 273.604 504.84C273.084 504.16 272.311 503.82 271.284 503.82C270.271 503.82 269.498 504.16 268.964 504.84C268.431 505.507 268.164 506.46 268.164 507.7V510.68C268.164 511.933 268.431 512.9 268.964 513.58C269.498 514.26 270.271 514.6 271.284 514.6C272.311 514.6 273.084 514.26 273.604 513.58C274.138 512.9 274.404 511.933 274.404 510.68V507.7ZM279.613 502.4H281.413V511.12C281.413 512.213 281.64 513.067 282.093 513.68C282.56 514.293 283.28 514.6 284.253 514.6C285.24 514.6 285.96 514.293 286.413 513.68C286.867 513.067 287.093 512.213 287.093 511.12V502.4H288.893V511.12C288.893 512.707 288.507 513.953 287.733 514.86C286.96 515.753 285.8 516.2 284.253 516.2C282.693 516.2 281.527 515.753 280.753 514.86C279.993 513.953 279.613 512.707 279.613 511.12V502.4Z" fill="white"/>
<path d="M146.548 468.528V467.52H157.42C159.94 467.52 161.884 468.084 163.252 469.212C164.62 470.34 165.304 471.852 165.304 473.748V474.576C165.304 476.016 164.908 477.24 164.116 478.248C163.324 479.256 162.184 479.976 160.696 480.408L165.196 488.976C165.484 489.504 165.7 489.888 165.844 490.128C165.988 490.368 166.12 490.524 166.24 490.596C166.384 490.644 166.576 490.692 166.816 490.74L168.436 490.992V492H161.704L156.268 480.84H153.64V488.976C153.64 489.792 153.676 490.284 153.748 490.452C153.82 490.596 154.048 490.692 154.432 490.74L156.412 490.992V492H146.548V490.992L148.528 490.74C148.912 490.692 149.14 490.596 149.212 490.452C149.284 490.284 149.32 489.792 149.32 488.976V470.544C149.32 469.728 149.284 469.248 149.212 469.104C149.14 468.936 148.912 468.828 148.528 468.78L146.548 468.528ZM157.42 468.78H153.64V479.58H157.42C158.476 479.58 159.28 479.256 159.832 478.608C160.408 477.936 160.696 476.712 160.696 474.936V473.388C160.696 471.612 160.408 470.4 159.832 469.752C159.28 469.104 158.476 468.78 157.42 468.78ZM186.809 485.808H187.817V492H169.997V490.992L171.977 490.74C172.361 490.692 172.589 490.596 172.661 490.452C172.733 490.284 172.769 489.792 172.769 488.976V470.544C172.769 469.728 172.733 469.248 172.661 469.104C172.589 468.936 172.361 468.828 171.977 468.78L169.997 468.528V467.52H187.457V473.712H186.449L185.297 469.716C185.225 469.428 185.141 469.224 185.045 469.104C184.973 468.96 184.817 468.876 184.577 468.852C184.337 468.804 183.929 468.78 183.353 468.78H177.089V479.004H181.193C181.769 479.004 182.177 478.992 182.417 478.968C182.657 478.92 182.813 478.836 182.885 478.716C182.981 478.572 183.065 478.356 183.137 478.068L183.929 475.152H184.937V484.116H183.929L183.137 481.2C183.065 480.912 182.981 480.708 182.885 480.588C182.813 480.444 182.657 480.36 182.417 480.336C182.177 480.288 181.769 480.264 181.193 480.264H177.089V490.74H183.713C184.289 490.74 184.697 490.728 184.937 490.704C185.177 490.656 185.333 490.572 185.405 490.452C185.501 490.308 185.585 490.092 185.657 489.804L186.809 485.808ZM205.225 475.368H206.233V484.332H205.225L204.433 481.416C204.361 481.128 204.277 480.924 204.181 480.804C204.109 480.66 203.953 480.576 203.713 480.552C203.473 480.504 203.065 480.48 202.489 480.48H198.781V488.976C198.781 489.792 198.817 490.284 198.889 490.452C198.961 490.596 199.189 490.692 199.573 490.74L202.273 490.992V492H191.689V490.992L193.669 490.74C194.053 490.692 194.281 490.596 194.353 490.452C194.425 490.284 194.461 489.792 194.461 488.976V470.544C194.461 469.728 194.425 469.248 194.353 469.104C194.281 468.936 194.053 468.828 193.669 468.78L191.689 468.528V467.52H208.753V473.712H207.745L206.593 469.716C206.521 469.428 206.437 469.224 206.341 469.104C206.269 468.96 206.113 468.876 205.873 468.852C205.633 468.804 205.225 468.78 204.649 468.78H198.781V479.22H202.489C203.065 479.22 203.473 479.208 203.713 479.184C203.953 479.136 204.109 479.052 204.181 478.932C204.277 478.788 204.361 478.572 204.433 478.284L205.225 475.368ZM226.67 468.528V467.52H233.654V468.528L231.674 468.78C231.29 468.828 231.062 468.936 230.99 469.104C230.918 469.248 230.882 469.728 230.882 470.544V483.684C230.882 486.564 230.27 488.736 229.046 490.2C227.846 491.64 225.998 492.36 223.502 492.36C220.598 492.36 218.258 491.568 216.482 489.984C214.706 488.4 213.818 486.12 213.818 483.144V470.544C213.818 469.728 213.782 469.248 213.71 469.104C213.638 468.936 213.41 468.828 213.026 468.78L211.046 468.528V467.52H220.91V468.528L218.93 468.78C218.546 468.828 218.318 468.936 218.246 469.104C218.174 469.248 218.138 469.728 218.138 470.544V483.396C218.138 486.084 218.63 488.028 219.614 489.228C220.598 490.428 222.002 491.028 223.826 491.028C225.602 491.028 226.982 490.464 227.966 489.336C228.95 488.184 229.442 486.324 229.442 483.756V470.544C229.442 469.728 229.406 469.248 229.334 469.104C229.262 468.936 229.034 468.828 228.65 468.78L226.67 468.528ZM247.68 481.92V480.912H257.904V481.92L255.924 482.172C255.54 482.22 255.312 482.328 255.24 482.496C255.168 482.64 255.132 483.12 255.132 483.936V492H254.16C253.512 491.328 252.792 490.764 252 490.308C251.352 490.884 250.584 491.376 249.696 491.784C248.808 492.168 247.728 492.36 246.456 492.36C244.488 492.36 242.796 491.868 241.38 490.884C239.988 489.876 238.92 488.496 238.176 486.744C237.432 484.968 237.06 482.952 237.06 480.696V478.428C237.06 476.244 237.432 474.312 238.176 472.632C238.92 470.928 240.012 469.596 241.452 468.636C242.892 467.652 244.656 467.16 246.744 467.16C248.712 467.16 250.332 467.52 251.604 468.24C252.9 468.936 253.848 469.872 254.448 471.048C255.048 472.2 255.276 473.46 255.132 474.828L250.92 475.872C251.184 473.472 250.92 471.636 250.128 470.364C249.336 469.068 248.16 468.42 246.6 468.42C243.312 468.42 241.668 471.336 241.668 477.168V482.316C241.668 488.172 243.408 491.1 246.888 491.1C247.656 491.1 248.424 490.944 249.192 490.632C249.984 490.32 250.644 489.864 251.172 489.264V483.936C251.172 483.12 251.136 482.628 251.064 482.46C250.992 482.292 250.764 482.196 250.38 482.172L247.68 481.92ZM276.915 485.808H277.923V492H260.103V490.992L262.083 490.74C262.467 490.692 262.695 490.596 262.767 490.452C262.839 490.284 262.875 489.792 262.875 488.976V470.544C262.875 469.728 262.839 469.248 262.767 469.104C262.695 468.936 262.467 468.828 262.083 468.78L260.103 468.528V467.52H277.563V473.712H276.555L275.403 469.716C275.331 469.428 275.247 469.224 275.151 469.104C275.079 468.96 274.923 468.876 274.683 468.852C274.443 468.804 274.035 468.78 273.459 468.78H267.195V479.004H271.299C271.875 479.004 272.283 478.992 272.523 478.968C272.763 478.92 272.919 478.836 272.991 478.716C273.087 478.572 273.171 478.356 273.243 478.068L274.035 475.152H275.043V484.116H274.035L273.243 481.2C273.171 480.912 273.087 480.708 272.991 480.588C272.919 480.444 272.763 480.36 272.523 480.336C272.283 480.288 271.875 480.264 271.299 480.264H267.195V490.74H273.819C274.395 490.74 274.803 490.728 275.043 490.704C275.283 490.656 275.439 490.572 275.511 490.452C275.607 490.308 275.691 490.092 275.763 489.804L276.915 485.808Z" fill="white"/>
<defs>
<clipPath id="clip0_313_2">
<rect width="428" height="926" fill="white"/>
</clipPath>
</defs>
</svg>
